<svg width="64" height="64" viewBox="0 0 64 64" fill="none" xmlns="http://www.w3.org/2000/svg">
<rect width="64" height="64" fill="#141416"/>
<path fill-rule="evenodd" clip-rule="evenodd" d="M32.879 17.4535C32.0999 17.1512 31.2831 17 30.4286 17C29.5742 17 28.7511 17.1512 27.9594 17.4535C27.1804 17.7432 26.4829 18.1714 25.8672 18.7383C25.5225 19.0556 25.2171 19.4125 24.9512 19.8088V17.2834H14V20.401H17.7132V29.8859H21.2379V20.401H24.5985C24.5275 20.5357 24.4604 20.6743 24.397 20.8167C24.0452 21.6354 23.8692 22.5675 23.8692 23.613C23.8692 24.6585 24.0452 25.5906 24.397 26.4094C24.7614 27.2281 25.2515 27.9209 25.8672 28.4877C26.4829 29.0546 27.1804 29.4891 27.9594 29.7914C28.7511 30.0812 29.5742 30.226 30.4286 30.226C31.2831 30.226 32.0999 30.0812 32.879 29.7914C33.6706 29.4891 34.3743 29.0546 34.99 28.4877C35.6058 27.9209 36.0896 27.2281 36.4414 26.4094C36.8058 25.5906 36.988 24.6585 36.988 23.613C36.988 22.5675 36.8058 21.6354 36.4414 20.8167C36.0896 19.9979 35.6058 19.3051 34.99 18.7383C34.3743 18.1714 33.6706 17.7432 32.879 17.4535ZM28.9207 20.7411C29.3605 20.4514 29.8632 20.3065 30.4286 20.3065C30.9941 20.3065 31.4967 20.4514 31.9365 20.7411C32.3889 21.0308 32.7408 21.4276 32.9921 21.9314C33.2434 22.4227 33.3691 22.9832 33.3691 23.613C33.3691 24.2428 33.2434 24.8096 32.9921 25.3135C32.7408 25.8047 32.3889 26.1952 31.9365 26.4849C31.4967 26.7747 30.9941 26.9195 30.4286 26.9195C29.8632 26.9195 29.3605 26.7747 28.9207 26.4849C28.4809 26.1952 28.1291 25.8047 27.8652 25.3135C27.6139 24.8096 27.4882 24.2428 27.4882 23.613C27.4882 22.9832 27.6139 22.4227 27.8652 21.9314C28.1291 21.4276 28.4809 21.0308 28.9207 20.7411Z" fill="#FCFCFD"/>
<path d="M36.498 38.1931V30.5031H32.9732V37.9475C32.9732 38.6025 32.7973 39.1378 32.4455 39.5535C32.0936 39.9566 31.5407 40.1644 30.7868 40.177C30.0328 40.1896 29.4799 39.9881 29.1281 39.5724C28.7762 39.1441 28.6003 38.6025 28.6003 37.9475V30.5031H25.0756V38.1931C25.0756 39.289 25.3332 40.2337 25.8484 41.0273C26.3636 41.8208 27.0547 42.4317 27.9217 42.86C28.7888 43.2757 29.7438 43.4835 30.7868 43.4835C31.8423 43.4835 32.7973 43.2757 33.6518 42.86C34.5188 42.4317 35.21 41.8208 35.7252 41.0273C36.2404 40.2337 36.498 39.289 36.498 38.1931Z" fill="#FCFCFD"/>
<path d="M23.2359 38.93V35.8124H18.7499V33.6585H24.1784V30.5409H15.2252V43.2001H18.7499V38.93H23.2359Z" fill="#FCFCFD"/>
<path d="M44.7412 38.5508H41.6311V34.054H37.3713V30.5207H50V50.3333H46.89V46.6111H37.4279V43.0779H46.89V34.054H44.7412V38.5508Z" fill="#FCFCFD"/>
<path d="M37.3698 28.8455H50V25.6522H43.4972L50 18.5292V17.2821H37.3698V20.5507H43.3841L37.3698 27.5984V28.8455Z" fill="#FCFCFD"/>
</svg>
